<?xml version="1.0" standalone="no"?>
<!DOCTYPE svg PUBLIC "-//W3C//DTD SVG 20010904//EN"
 "http://www.w3.org/TR/2001/REC-SVG-20010904/DTD/svg10.dtd">
<svg version="1.0" xmlns="http://www.w3.org/2000/svg"
 width="900.000000pt" height="680.000000pt" viewBox="0 0 900.000000 680.000000"
 preserveAspectRatio="xMidYMid meet">

<g transform="translate(0.000000,680.000000) scale(0.100000,-0.100000)"
fill="#000000" stroke="none">
<path d="M2166 6789 c-330 -35 -583 -207 -729 -494 -13 -27 -131 -322 -262
-655 -130 -333 -261 -666 -290 -740 -29 -74 -76 -195 -105 -267 -39 -100 -56
-133 -69 -133 -32 0 -162 -49 -227 -85 -135 -76 -249 -184 -338 -323 -56 -86
-79 -139 -114 -257 l-27 -90 -3 -1157 -3 -1158 373 -2 373 -3 5 -355 c6 -335
7 -359 29 -425 80 -244 253 -385 471 -385 263 0 460 206 500 521 5 46 10 211
10 366 l0 283 1190 0 c655 0 1190 1 1190 3 0 1 -16 48 -34 104 -128 380 -160
844 -85 1243 46 244 118 458 226 676 121 243 261 440 453 638 148 152 273 256
441 366 l123 80 -1923 0 c-1827 0 -1923 1 -1918 18 3 9 75 202 162 427 86 226
186 487 221 580 135 353 155 403 182 446 42 65 90 109 152 138 l55 26 1845 0
1845 0 47 -22 c122 -56 162 -113 263 -379 192 -501 306 -802 325 -855 l13 -36
121 -7 c154 -9 364 -39 486 -71 52 -13 96 -23 97 -21 2 2 -62 171 -143 377
-464 1186 -448 1148 -525 1259 -149 216 -373 339 -670 370 -123 12 -3614 12
-3733 -1z m-412 -2904 c252 -66 419 -265 441 -528 25 -292 -199 -576 -487
-618 -388 -56 -725 306 -644 691 58 273 287 467 556 469 42 1 102 -6 134 -14z"/>
<path d="M6336 4508 c-142 -12 -325 -51 -481 -102 -807 -266 -1380 -962 -1496
-1816 -17 -123 -17 -418 0 -540 115 -851 687 -1546 1492 -1814 380 -126 777
-144 1184 -55 321 71 700 264 934 476 33 29 62 53 65 53 3 0 122 -95 263 -211
142 -117 278 -221 302 -231 86 -39 217 -20 292 41 19 16 48 53 64 82 26 47 30
64 30 134 0 134 -11 148 -322 402 -145 119 -263 219 -263 223 0 4 19 39 42 76
117 194 230 512 270 764 18 114 18 546 0 660 -73 459 -294 894 -622 1220 -467
466 -1099 696 -1754 638z m394 -523 c315 -37 580 -145 832 -337 442 -336 698
-908 649 -1453 -47 -530 -308 -978 -736 -1267 -622 -419 -1435 -375 -2017 109
-485 403 -700 1061 -548 1680 35 143 62 219 128 351 168 338 439 603 784 766
186 88 312 125 518 151 143 18 242 18 390 0z"/>
</g>
</svg>
