<svg width="44" height="44" viewBox="0 0 44 44" fill="none" xmlns="http://www.w3.org/2000/svg">
<path d="M26.44 13.0996C24.63 13.0996 23.01 13.9796 22 15.3296C20.99 13.9796 19.37 13.0996 17.56 13.0996C14.49 13.0996 12 15.5996 12 18.6896C12 19.8796 12.19 20.9796 12.52 21.9996C14.1 26.9996 18.97 29.9896 21.38 30.8096C21.72 30.9296 22.28 30.9296 22.62 30.8096C25.03 29.9896 29.9 26.9996 31.48 21.9996C31.81 20.9796 32 19.8796 32 18.6896C32 15.5996 29.51 13.0996 26.44 13.0996Z" fill="#596780"/>
<rect opacity="0.8" x="0.5" y="0.5" width="43" height="43" rx="21.5" stroke="#C3D4E9" stroke-opacity="0.4"/>
</svg>
