<svg width="44" height="44" viewBox="0 0 44 44" fill="none" xmlns="http://www.w3.org/2000/svg">
<path d="M30.1 19.2204C28.29 19.2204 27.55 17.9404 28.45 16.3704C28.97 15.4604 28.66 14.3004 27.75 13.7804L26.02 12.7904C25.23 12.3204 24.21 12.6004 23.74 13.3904L23.63 13.5804C22.73 15.1504 21.25 15.1504 20.34 13.5804L20.23 13.3904C19.78 12.6004 18.76 12.3204 17.97 12.7904L16.24 13.7804C15.33 14.3004 15.02 15.4704 15.54 16.3804C16.45 17.9404 15.71 19.2204 13.9 19.2204C12.86 19.2204 12 20.0704 12 21.1204V22.8804C12 23.9204 12.85 24.7804 13.9 24.7804C15.71 24.7804 16.45 26.0604 15.54 27.6304C15.02 28.5404 15.33 29.7004 16.24 30.2204L17.97 31.2104C18.76 31.6804 19.78 31.4004 20.25 30.6104L20.36 30.4204C21.26 28.8504 22.74 28.8504 23.65 30.4204L23.76 30.6104C24.23 31.4004 25.25 31.6804 26.04 31.2104L27.77 30.2204C28.68 29.7004 28.99 28.5304 28.47 27.6304C27.56 26.0604 28.3 24.7804 30.11 24.7804C31.15 24.7804 32.01 23.9304 32.01 22.8804V21.1204C32 20.0804 31.15 19.2204 30.1 19.2204ZM22 25.2504C20.21 25.2504 18.75 23.7904 18.75 22.0004C18.75 20.2104 20.21 18.7504 22 18.7504C23.79 18.7504 25.25 20.2104 25.25 22.0004C25.25 23.7904 23.79 25.2504 22 25.2504Z" fill="#596780"/>
<rect opacity="0.8" x="0.5" y="0.5" width="43" height="43" rx="21.5" stroke="#C3D4E9" stroke-opacity="0.4"/>
</svg>
